<?xml version="1.0" encoding="UTF-8"?>
<svg xmlns="http://www.w3.org/2000/svg" width="1040" height="260" viewBox="0 0 1040 260" fill="none" color-scheme="dark">
  <defs><linearGradient id="bg" x1="0" y1="0" x2="0" y2="1" gradientUnits="objectBoundingBox">
      <stop stop-color="#1a2332"/>
      <stop offset="1" stop-color="#0f172a"/>
    </linearGradient></defs>
  <rect width="1040" height="260" rx="12" fill="url(#bg)"/>
  <rect x="1" y="1" width="1038" height="258" rx="11" stroke="#475569" stroke-width="1" fill="none" opacity="0.55"/>
  
  <text x="520" y="34" text-anchor="middle" fill="#f8fafc" font-family="sans-serif" font-size="16" font-weight="600">Two CodeCommit repos on one EKS cluster</text>

  <rect x="24" y="56" width="484" height="180" rx="12" fill="#1e293b" stroke="#475569" stroke-width="1"/>
  <text x="40" y="78" fill="#e2e8f0" font-family="sans-serif" font-size="12" font-weight="600">Build</text>
  <g transform="translate(136 104) scale(0.55)">
    
    <g id="codecommit-app-dark-0-Icon-Architecture/64/Arch_AWS-CodeCommit_64" stroke="none" stroke-width="1" fill="none" fill-rule="evenodd">
        <g id="codecommit-app-dark-0-Icon-Architecture-BG/64/Developer-Tools" fill="#C925D1">
            <rect id="codecommit-app-dark-0-Rectangle" x="0" y="0" width="80" height="80"></rect>
        </g>
        <path d="M26.6283186,28.1047251 L24.6106195,28.1047251 L24.6106195,21.123052 C24.6106195,20.5645181 24.9707788,20.1326518 25.5367434,20.1326518 L32.6814159,20.1256701 L32.6814159,22.1204339 L27.9499115,22.1204339 L32.8115575,26.9387857 L31.366885,28.3730208 L26.5607257,23.6454307 L26.6283186,28.1047251 Z M54.6985487,38.972198 L56.5669381,39.7990276 L50.0255575,54.2451066 L48.158177,53.418277 L54.6985487,38.972198 Z M56.0090442,49.4646553 L60.0121593,46.57524 L56.4862301,43.0395213 L57.9440177,41.6182521 L62.3032566,45.9907742 C62.5120885,46.2002244 62.6190265,46.4894652 62.5938053,46.7826954 C62.5706018,47.0759257 62.4182655,47.3452188 62.1771504,47.5177659 L57.2146195,51.0983668 L56.0090442,49.4646553 Z M46.9657168,40.6627603 L48.171292,42.2964718 L44.1096637,45.2277771 L47.6476991,48.7644932 L46.1939469,50.1877571 L41.8195752,45.815235 C41.6097345,45.6057848 41.5017876,45.3165441 41.5270088,45.0233138 C41.5502124,44.7290861 41.7015398,44.4607904 41.9436637,44.287246 L46.9657168,40.6627603 Z M69,24.1301583 L69,66.9876574 C69,67.5471886 68.5419823,68 67.9760177,68 L36.7168142,68 C36.4444248,68 36.1851504,67.8932801 35.993469,67.7027802 C35.8017876,67.5132776 35.7079646,67.2709139 35.7079646,67.0026181 L35.7079646,55.0340357 L37.7256637,55.0340357 L37.7256637,66.0052363 L66.9823009,66.0052363 L66.9823009,25.1125795 L37.7256637,25.1125795 L37.7256637,23.1178157 L67.9760177,23.1178157 C68.5419823,23.1178157 69,23.5706271 69,24.1301583 L69,24.1301583 Z M33.1818053,34.5877073 C33.1818053,32.6607655 34.766708,31.0928812 36.7168142,31.0928812 C38.6669204,31.0928812 40.251823,32.6607655 40.251823,34.5877073 C40.251823,36.514649 38.6669204,38.0825333 36.7168142,38.0825333 C34.766708,38.0825333 33.1818053,36.514649 33.1818053,34.5877073 L33.1818053,34.5877073 Z M17.5486726,66.0092258 C15.5985664,66.0092258 14.0136637,64.4413415 14.0136637,62.5143997 C14.0136637,60.5874579 15.5985664,59.0195736 17.5486726,59.0195736 C19.4987788,59.0195736 21.0836814,60.5874579 21.0836814,62.5143997 C21.0836814,64.4413415 19.4987788,66.0092258 17.5486726,66.0092258 L17.5486726,66.0092258 Z M14.0136637,42.5667622 C14.0136637,40.6398205 15.5985664,39.0719362 17.5486726,39.0719362 C19.5310619,39.0719362 21.0836814,40.6069069 21.0836814,42.5667622 C21.0836814,44.493704 19.4987788,46.0615883 17.5486726,46.0615883 C15.5985664,46.0615883 14.0136637,44.493704 14.0136637,42.5667622 L14.0136637,42.5667622 Z M14.0176991,17.4856003 C14.0176991,15.5606533 15.6015929,13.9947637 17.5486726,13.9947637 C19.4957522,13.9947637 21.079646,15.5606533 21.079646,17.4856003 C21.079646,19.4095499 19.4957522,20.9764369 17.5486726,20.9764369 C15.6015929,20.9764369 14.0176991,19.4095499 14.0176991,17.4856003 L14.0176991,17.4856003 Z M37.7256637,47.2484728 L37.7256637,39.9715746 C40.2952035,39.4948261 42.2614513,37.2636828 42.2614513,34.5877073 C42.2614513,31.5656402 39.7736283,29.1060965 36.7168142,29.1060965 C33.66,29.1060965 31.172177,31.5656402 31.172177,34.5877073 C31.172177,37.2636828 33.1384248,39.4948261 35.7079646,39.9715746 L35.7079646,47.2484728 C35.7079646,48.41142 34.9220708,49.4656527 33.7275929,49.9344221 L23.2769204,54.034659 C21.6042478,54.6909363 20.3744602,55.9815484 19.8427965,57.5304825 C19.41,57.3349956 19.0417699,57.1943648 18.5575221,57.1135769 L18.5575221,47.9675851 C21.180531,47.5347214 23.0933097,45.2806383 23.0933097,42.5667622 C23.0933097,39.8030171 21.2148319,37.5948136 18.5575221,37.1739185 L18.5575221,22.8894153 C21.1835575,22.4575489 23.0973451,20.2014711 23.0973451,17.4856003 C23.0973451,14.4605411 20.6085133,12 17.5486726,12 C14.4888319,12 12,14.4605411 12,17.4856003 C12,20.1256701 14.0217345,22.3358683 16.539823,22.8545069 L16.539823,37.2018452 C14.0247611,37.7204837 12.0040354,39.9286872 12.0040354,42.5667622 C12.0040354,45.2048373 14.0247611,47.4130408 16.539823,47.9316793 L16.539823,57.1494826 C14.0247611,57.6681212 12.0040354,59.8763246 12.0040354,62.5143997 C12.0040354,65.5364668 14.4918584,67.9960105 17.5486726,67.9960105 C20.6054867,67.9960105 23.0933097,65.5364668 23.0933097,62.5143997 C23.0933097,61.0911358 22.5364248,59.7965341 21.6345133,58.8210946 C21.8019823,57.5504301 22.7008673,56.437352 24.0315398,55.9157212 L34.4822124,51.8154844 C36.4615752,51.0385239 37.7256637,49.2462286 37.7256637,47.2484728 L37.7256637,47.2484728 Z" id="codecommit-app-dark-0-AWS-CodeCommit_Icon_64_Squid" fill="#FFFFFF"></path>
    </g>
</g>
  <text x="158" y="174" text-anchor="middle" fill="#f8fafc" font-family="sans-serif" font-size="13" font-weight="600">pulse-app</text><text x="158" y="190" text-anchor="middle" fill="#94a3b8" font-family="sans-serif" font-size="11">source</text>
  <line x1="198" y1="130" x2="228" y2="130" stroke="#64748b" stroke-width="2"/>
  <polygon points="228,125 238,130 228,135" fill="#64748b"/>
  <g transform="translate(242.08897126969416 104.4643188137164) scale(0.11121408711770157)"><defs><clipPath id="buildpacks-dark-1-clip-path"><path d="M322.25 273.623v84.987a13.423 13.423 0 0 0 13.383 13.383 15.23 15.23 0 0 0 6.692-1.673l73.61-42.493a13.495 13.495 0 0 0 6.692-11.71V231.13a13.423 13.423 0 0 0-13.384-13.383 15.23 15.23 0 0 0-6.692 1.673l-73.61 42.827a13.363 13.363 0 0 0-6.692 11.376z" class="buildpacks-dark-1-cls-1"/></clipPath><clipPath id="buildpacks-dark-1-clip-path-2"><path d="M295.482 45.767l-73.61 42.493a13.495 13.495 0 0 0-6.692 11.71v84.987a13.423 13.423 0 0 0 13.384 13.383 15.23 15.23 0 0 0 6.691-1.673l73.61-42.493a13.495 13.495 0 0 0 6.692-11.71V57.143a13.423 13.423 0 0 0-13.383-13.384 12.064 12.064 0 0 0-6.692 2.008z" class="buildpacks-dark-1-cls-1"/></clipPath><clipPath id="buildpacks-dark-1-clip-path-3"><path d="M108.11 273.623v84.987a13.423 13.423 0 0 0 13.384 13.383 15.23 15.23 0 0 0 6.692-1.673l73.61-42.493a13.495 13.495 0 0 0 6.692-11.71V231.13a13.423 13.423 0 0 0-13.383-13.383 15.23 15.23 0 0 0-6.692 1.673l-73.61 42.827a13.363 13.363 0 0 0-6.692 11.376z" class="buildpacks-dark-1-cls-1"/></clipPath><style>.buildpacks-dark-1-cls-1{fill:#fff}</style></defs><path d="M315.557 262.247l-73.61-42.493a13.519 13.519 0 0 0-18.402 4.684 15.23 15.23 0 0 0-1.673 6.692v84.986a14.368 14.368 0 0 0 6.692 11.711l86.993 50.189a13.625 13.625 0 0 0 13.384 0l86.994-50.189a13.495 13.495 0 0 0 6.691-11.71V231.13a13.423 13.423 0 0 0-13.383-13.383 15.23 15.23 0 0 0-6.692 1.673l-73.61 42.827a13.625 13.625 0 0 1-13.384 0z" class="buildpacks-dark-1-cls-1"/><path d="M322.25 273.623v84.987a13.423 13.423 0 0 0 13.383 13.383 15.23 15.23 0 0 0 6.692-1.673l73.61-42.493a13.495 13.495 0 0 0 6.692-11.71V231.13a13.423 13.423 0 0 0-13.384-13.383 15.23 15.23 0 0 0-6.692 1.673l-73.61 42.827a13.363 13.363 0 0 0-6.692 11.376z" class="buildpacks-dark-1-cls-1"/><g clip-path="url(#buildpacks-dark-1-clip-path)"><rect width="100.377" x="322.249" y="217.747" class="buildpacks-dark-1-cls-1"/><path d="M322.249 217.747h100.377v2.706H322.249zm0 2.706h100.377v2.706H322.249zm0 2.706h100.377v2.706H322.249zm0 2.706h100.377v2.706H322.249zm0 2.706h100.377v2.706H322.249zm0 2.706h100.377v2.706H322.249zm0 2.706h100.377v2.706H322.249zm0 2.706h100.377v2.706H322.249zm0 2.706h100.377v2.706H322.249zm0 2.706h100.377v2.706H322.249zm0 2.706h100.377v2.706H322.249zm0 2.707h100.377v2.706H322.249zm0 2.706h100.377v2.706H322.249zm0 2.706h100.377v2.706H322.249zm0 2.706h100.377v2.706H322.249zm0 2.706h100.377v2.706H322.249zm0 2.706h100.377v2.706H322.249zm0 2.706h100.377v2.706H322.249zm0 2.706h100.377v2.706H322.249zm0 2.706h100.377v2.706H322.249zm0 2.706h100.377v2.706H322.249zm0 2.706h100.377v2.706H322.249zm0 2.706h100.377v2.706H322.249zm0 2.706h100.377v2.706H322.249zm0 2.707h100.377v2.706H322.249zm0 2.706h100.377v2.706H322.249zm0 2.706h100.377v2.706H322.249z" class="buildpacks-dark-1-cls-1"/><path d="M322.249 290.811h100.377v2.706H322.249zm0 2.706h100.377v2.706H322.249zm0 2.706h100.377v2.706H322.249z" class="buildpacks-dark-1-cls-1"/><path d="M322.249 298.929h100.377v2.706H322.249zm0 2.706h100.377v2.706H322.249zm0 2.706h100.377v2.706H322.249zm0 2.706h100.377v2.706H322.249z" class="buildpacks-dark-1-cls-1"/><path d="M322.249 309.753h100.377v2.706H322.249zm0 2.706h100.377v2.706H322.249zm0 2.707h100.377v2.706H322.249zm0 2.706h100.377v2.706H322.249z" class="buildpacks-dark-1-cls-1"/><path d="M322.249 320.578h100.377v2.706H322.249zm0 2.706h100.377v2.706H322.249zm0 2.706h100.377v2.706H322.249zm0 2.706h100.377v2.706H322.249z" class="buildpacks-dark-1-cls-1"/><path d="M322.249 331.402h100.377v2.706H322.249zm0 2.706h100.377v2.706H322.249zm0 2.706h100.377v2.706H322.249z" class="buildpacks-dark-1-cls-1"/><path d="M322.249 339.52h100.377v2.706H322.249zm0 2.706h100.377v2.706H322.249zm0 2.706h100.377v2.706H322.249z" class="buildpacks-dark-1-cls-1"/><path d="M322.249 347.638h100.377v2.706H322.249zm0 2.707h100.377v2.706H322.249zm0 2.706h100.377v2.706H322.249zm0 2.706h100.377v2.706H322.249zm0 2.706h100.377v2.706H322.249z" class="buildpacks-dark-1-cls-1"/><path d="M322.249 361.169h100.377v2.706H322.249zm0 2.706h100.377v2.706H322.249zm0 2.706h100.377v2.706H322.249z" class="buildpacks-dark-1-cls-1"/><path d="M322.249 369.287h100.377v2.706H322.249z" class="buildpacks-dark-1-cls-1"/></g><path d="M295.482 45.767l-73.61 42.493a13.625 13.625 0 0 1-13.384 0l-73.61-42.493a13.519 13.519 0 0 0-18.402 4.684 15.23 15.23 0 0 0-1.673 6.692v84.986a14.368 14.368 0 0 0 6.691 11.71l86.994 50.19a13.625 13.625 0 0 0 13.384 0l86.993-50.19a13.495 13.495 0 0 0 6.692-11.71V57.143a13.423 13.423 0 0 0-13.383-13.384 12.064 12.064 0 0 0-6.692 2.008z" class="buildpacks-dark-1-cls-1"/><path d="M295.482 45.767l-73.61 42.493a13.495 13.495 0 0 0-6.692 11.71v84.987a13.423 13.423 0 0 0 13.384 13.383 15.23 15.23 0 0 0 6.691-1.673l73.61-42.493a13.495 13.495 0 0 0 6.692-11.71V57.143a13.423 13.423 0 0 0-13.383-13.384 12.064 12.064 0 0 0-6.692 2.008z" class="buildpacks-dark-1-cls-1"/><g clip-path="url(#buildpacks-dark-1-clip-path-2)"><rect width="100.377" x="215.18" y="43.759" class="buildpacks-dark-1-cls-1"/><path d="M215.18 43.759h100.377v2.708H215.18zm0 2.709h100.377v2.708H215.18zm0 2.708h100.377v2.708H215.18zm0 2.708h100.377v2.708H215.18zm0 2.709h100.377v2.708H215.18zm0 2.708h100.377v2.708H215.18zm0 2.708h100.377v2.708H215.18zm0 2.709h100.377v2.708H215.18zm0 2.708h100.377v2.708H215.18zm0 2.708h100.377v2.708H215.18zm0 2.709h100.377v2.708H215.18zm0 2.708h100.377v2.708H215.18zm0 2.708h100.377v2.708H215.18zm0 2.709h100.377v2.708H215.18zm0 2.708h100.377v2.708H215.18zm0 2.708h100.377v2.708H215.18zm0 2.709h100.377v2.708H215.18zm0 2.708h100.377v2.708H215.18zm0 2.708h100.377v2.708H215.18zm0 2.709h100.377v2.708H215.18zm0 2.708h100.377v2.708H215.18zm0 2.708h100.377v2.708H215.18zm0 2.709h100.377v2.708H215.18zm0 2.708h100.377v2.708H215.18zm0 2.709h100.377v2.708H215.18zm0 2.708h100.377v2.708H215.18zm0 2.708h100.377v2.708H215.18zm0 2.709h100.377v2.708H215.18zm0 2.708h100.377v2.708H215.18zm0 2.708h100.377v2.708H215.18zm0 2.709h100.377v2.708H215.18zm0 2.708h100.377v2.708H215.18z" class="buildpacks-dark-1-cls-1"/><path d="M215.18 130.426h100.377v2.708H215.18zm0 2.709h100.377v2.708H215.18zm0 2.708h100.377v2.708H215.18zm0 2.708h100.377v2.708H215.18zm0 2.709h100.377v2.708H215.18zm0 2.708h100.377v2.708H215.18zm0 2.708h100.377v2.708H215.18zm0 2.709h100.377v2.708H215.18zm0 2.708h100.377v2.708H215.18zm0 2.708h100.377v2.708H215.18zm0 2.709h100.377v2.708H215.18zm0 2.708h100.377v2.708H215.18zm0 2.708h100.377v2.708H215.18zm0 2.709h100.377v2.708H215.18zm0 2.708h100.377v2.708H215.18zm0 2.708h100.377v2.708H215.18zm0 2.709h100.377v2.708H215.18zm0 2.708h100.377v2.708H215.18zm0 2.709h100.377v2.708H215.18zm0 2.708h100.377v2.708H215.18zm0 2.708h100.377v2.708H215.18zm0 2.709h100.377v2.708H215.18zm0 2.708h100.377v2.708H215.18zm0 2.708h100.377v2.708H215.18zm0 2.709h100.377v2.708H215.18zm0 2.708h100.377v.205H215.18z" class="buildpacks-dark-1-cls-1"/></g><path d="M101.419 262.247l-73.61-42.493a13.519 13.519 0 0 0-18.403 4.684 15.23 15.23 0 0 0-1.673 6.692v84.986a14.368 14.368 0 0 0 6.692 11.711l86.994 50.189a13.625 13.625 0 0 0 13.384 0l86.993-50.189a13.495 13.495 0 0 0 6.692-11.71V231.13a13.423 13.423 0 0 0-13.383-13.383 15.23 15.23 0 0 0-6.692 1.673l-73.61 42.827a13.625 13.625 0 0 1-13.384 0z" class="buildpacks-dark-1-cls-1"/><path d="M108.11 273.623v84.987a13.423 13.423 0 0 0 13.384 13.383 15.23 15.23 0 0 0 6.692-1.673l73.61-42.493a13.495 13.495 0 0 0 6.692-11.71V231.13a13.423 13.423 0 0 0-13.383-13.383 15.23 15.23 0 0 0-6.692 1.673l-73.61 42.827a13.363 13.363 0 0 0-6.692 11.376z" class="buildpacks-dark-1-cls-1"/><g clip-path="url(#buildpacks-dark-1-clip-path-3)"><rect width="100.377" x="108.111" y="217.747" class="buildpacks-dark-1-cls-1"/><path d="M108.111 217.747h100.377v2.706H108.111zm0 2.706h100.377v2.706H108.111zm0 2.706h100.377v2.706H108.111zm0 2.706h100.377v2.706H108.111zm0 2.706h100.377v2.706H108.111zm0 2.706h100.377v2.706H108.111zm0 2.706h100.377v2.706H108.111zm0 2.706h100.377v2.706H108.111zm0 2.706h100.377v2.706H108.111zm0 2.706h100.377v2.706H108.111zm0 2.706h100.377v2.706H108.111zm0 2.707h100.377v2.706H108.111zm0 2.706h100.377v2.706H108.111zm0 2.706h100.377v2.706H108.111zm0 2.706h100.377v2.706H108.111zm0 2.706h100.377v2.706H108.111zm0 2.706h100.377v2.706H108.111zm0 2.706h100.377v2.706H108.111zm0 2.706h100.377v2.706H108.111zm0 2.706h100.377v2.706H108.111zm0 2.706h100.377v2.706H108.111zm0 2.706h100.377v2.706H108.111zm0 2.706h100.377v2.706H108.111zm0 2.706h100.377v2.706H108.111zm0 2.707h100.377v2.706H108.111zm0 2.706h100.377v2.706H108.111zm0 2.706h100.377v2.706H108.111z" class="buildpacks-dark-1-cls-1"/><path d="M108.111 290.811h100.377v2.706H108.111zm0 2.706h100.377v2.706H108.111zm0 2.706h100.377v2.706H108.111z" class="buildpacks-dark-1-cls-1"/><path d="M108.111 298.929h100.377v2.706H108.111zm0 2.706h100.377v2.706H108.111zm0 2.706h100.377v2.706H108.111zm0 2.706h100.377v2.706H108.111z" class="buildpacks-dark-1-cls-1"/><path d="M108.111 309.753h100.377v2.706H108.111zm0 2.706h100.377v2.706H108.111zm0 2.707h100.377v2.706H108.111zm0 2.706h100.377v2.706H108.111z" class="buildpacks-dark-1-cls-1"/><path d="M108.111 320.578h100.377v2.706H108.111zm0 2.706h100.377v2.706H108.111zm0 2.706h100.377v2.706H108.111zm0 2.706h100.377v2.706H108.111z" class="buildpacks-dark-1-cls-1"/><path d="M108.111 331.402h100.377v2.706H108.111zm0 2.706h100.377v2.706H108.111zm0 2.706h100.377v2.706H108.111z" class="buildpacks-dark-1-cls-1"/><path d="M108.111 339.52h100.377v2.706H108.111zm0 2.706h100.377v2.706H108.111zm0 2.706h100.377v2.706H108.111z" class="buildpacks-dark-1-cls-1"/><path d="M108.111 347.638h100.377v2.706H108.111zm0 2.707h100.377v2.706H108.111zm0 2.706h100.377v2.706H108.111zm0 2.706h100.377v2.706H108.111zm0 2.706h100.377v2.706H108.111z" class="buildpacks-dark-1-cls-1"/><path d="M108.111 361.169h100.377v2.706H108.111zm0 2.706h100.377v2.706H108.111zm0 2.706h100.377v2.706H108.111z" class="buildpacks-dark-1-cls-1"/><path d="M108.111 369.287h100.377v2.706H108.111z" class="buildpacks-dark-1-cls-1"/></g></g>
  <text x="266" y="174" text-anchor="middle" fill="#f8fafc" font-family="sans-serif" font-size="13" font-weight="600">kpack</text><text x="266" y="190" text-anchor="middle" fill="#94a3b8" font-family="sans-serif" font-size="11">on EKS</text>
  <line x1="294" y1="130" x2="324" y2="130" stroke="#64748b" stroke-width="2"/>
  <polygon points="324,125 334,130 324,135" fill="#64748b"/>
  <g transform="translate(352 104) scale(0.55)">
    
    <g id="ecr-dark-2-Icon-Architecture/64/Arch_Amazon-Elastic-Container-Registry_64" stroke="none" stroke-width="1" fill="none" fill-rule="evenodd">
        <g id="ecr-dark-2-Icon-Architecture-BG/64/Compute" fill="#ED7100">
            <rect id="ecr-dark-2-Rectangle" x="0" y="0" width="80" height="80"></rect>
        </g>
        <path d="M38.7880741,37.5776945 C38.2933845,37.8655125 37.9855777,38.4000317 37.9855777,38.973662 L37.9855777,66.7195186 L16.9987459,54.9841655 L16.9987459,27.7076428 L40.5569643,14.0588515 L61.484833,24.4283226 L38.7880741,37.5776945 Z M63.9203049,24.4022485 C63.9203049,23.8276153 63.6134974,23.2920933 63.0598448,22.9751927 L41.3464689,12.2146099 C40.8507799,11.9287976 40.2351662,11.9277948 39.7404766,12.2156128 L15.8024965,26.0840283 C15.3078069,26.3718463 15,26.9063655 15,27.4799958 L15,55.2158239 C15,55.7894542 15.3078069,56.3239734 15.8174871,56.6198142 L37.573836,68.7853901 C37.8216805,68.9287976 38.1005056,69 38.3783312,69 C38.6551575,69 38.9339826,68.9287976 39.1808277,68.7853901 C39.6765167,68.4985749 39.9843236,67.9640557 39.9843236,67.3894226 L39.9843236,39.201309 L63.1178084,25.798216 C63.6134974,25.5114008 63.9203049,24.9768817 63.9203049,24.4022485 L63.9203049,24.4022485 Z M63.9692742,55.0473451 L44.9811883,66.6613533 L44.9811883,56.2617967 L54.881976,49.872638 L54.9499334,49.424364 C54.9679221,49.3070305 54.9749177,49.3070305 54.9749177,48.7664942 L55.0058983,36.3602344 L64.0002547,31.1484218 L63.9692742,55.0473451 Z M65.1965042,29.0715191 C64.6998158,28.7816953 64.0842021,28.7826982 63.5885131,29.0715191 L54.0135209,34.6182835 C53.713709,34.7817481 53.0081517,35.1658398 53.0081517,35.9580914 L52.9761718,48.7173546 L43.8508975,54.606091 C43.3062392,54.9310145 42.9824424,55.4454766 42.9824424,55.9890214 L42.9824424,67.3081917 C42.9824424,67.8748021 43.2872511,68.3912699 43.7979307,68.6871107 C44.0647633,68.8405468 44.361577,68.9187691 44.6573914,68.9187691 C44.948209,68.9187691 45.2390265,68.8445582 45.5018616,68.692125 L65.1675223,56.6639396 C65.6622119,56.3761216 65.9680201,55.8416024 65.9680201,55.2709807 L66,30.4664837 C66,29.8928534 65.6921931,29.3583342 65.1965042,29.0715191 L65.1965042,29.0715191 Z" id="ecr-dark-2-Amazon-Elastic-Container-Registry_Icon_64_Squid" fill="#FFFFFF"></path>
    </g>
</g>
  <text x="374" y="174" text-anchor="middle" fill="#f8fafc" font-family="sans-serif" font-size="13" font-weight="600">ECR</text><text x="374" y="190" text-anchor="middle" fill="#94a3b8" font-family="sans-serif" font-size="11">image</text>

  <rect x="532" y="56" width="484" height="180" rx="12" fill="#1e293b" stroke="#475569" stroke-width="1"/>
  <text x="548" y="78" fill="#e2e8f0" font-family="sans-serif" font-size="12" font-weight="600">Deploy</text>
  <g transform="translate(644 104) scale(0.55)">
    
    <g id="codecommit-deploy-dark-3-Icon-Architecture/64/Arch_AWS-CodeCommit_64" stroke="none" stroke-width="1" fill="none" fill-rule="evenodd">
        <g id="codecommit-deploy-dark-3-Icon-Architecture-BG/64/Developer-Tools" fill="#C925D1">
            <rect id="codecommit-deploy-dark-3-Rectangle" x="0" y="0" width="80" height="80"></rect>
        </g>
        <path d="M26.6283186,28.1047251 L24.6106195,28.1047251 L24.6106195,21.123052 C24.6106195,20.5645181 24.9707788,20.1326518 25.5367434,20.1326518 L32.6814159,20.1256701 L32.6814159,22.1204339 L27.9499115,22.1204339 L32.8115575,26.9387857 L31.366885,28.3730208 L26.5607257,23.6454307 L26.6283186,28.1047251 Z M54.6985487,38.972198 L56.5669381,39.7990276 L50.0255575,54.2451066 L48.158177,53.418277 L54.6985487,38.972198 Z M56.0090442,49.4646553 L60.0121593,46.57524 L56.4862301,43.0395213 L57.9440177,41.6182521 L62.3032566,45.9907742 C62.5120885,46.2002244 62.6190265,46.4894652 62.5938053,46.7826954 C62.5706018,47.0759257 62.4182655,47.3452188 62.1771504,47.5177659 L57.2146195,51.0983668 L56.0090442,49.4646553 Z M46.9657168,40.6627603 L48.171292,42.2964718 L44.1096637,45.2277771 L47.6476991,48.7644932 L46.1939469,50.1877571 L41.8195752,45.815235 C41.6097345,45.6057848 41.5017876,45.3165441 41.5270088,45.0233138 C41.5502124,44.7290861 41.7015398,44.4607904 41.9436637,44.287246 L46.9657168,40.6627603 Z M69,24.1301583 L69,66.9876574 C69,67.5471886 68.5419823,68 67.9760177,68 L36.7168142,68 C36.4444248,68 36.1851504,67.8932801 35.993469,67.7027802 C35.8017876,67.5132776 35.7079646,67.2709139 35.7079646,67.0026181 L35.7079646,55.0340357 L37.7256637,55.0340357 L37.7256637,66.0052363 L66.9823009,66.0052363 L66.9823009,25.1125795 L37.7256637,25.1125795 L37.7256637,23.1178157 L67.9760177,23.1178157 C68.5419823,23.1178157 69,23.5706271 69,24.1301583 L69,24.1301583 Z M33.1818053,34.5877073 C33.1818053,32.6607655 34.766708,31.0928812 36.7168142,31.0928812 C38.6669204,31.0928812 40.251823,32.6607655 40.251823,34.5877073 C40.251823,36.514649 38.6669204,38.0825333 36.7168142,38.0825333 C34.766708,38.0825333 33.1818053,36.514649 33.1818053,34.5877073 L33.1818053,34.5877073 Z M17.5486726,66.0092258 C15.5985664,66.0092258 14.0136637,64.4413415 14.0136637,62.5143997 C14.0136637,60.5874579 15.5985664,59.0195736 17.5486726,59.0195736 C19.4987788,59.0195736 21.0836814,60.5874579 21.0836814,62.5143997 C21.0836814,64.4413415 19.4987788,66.0092258 17.5486726,66.0092258 L17.5486726,66.0092258 Z M14.0136637,42.5667622 C14.0136637,40.6398205 15.5985664,39.0719362 17.5486726,39.0719362 C19.5310619,39.0719362 21.0836814,40.6069069 21.0836814,42.5667622 C21.0836814,44.493704 19.4987788,46.0615883 17.5486726,46.0615883 C15.5985664,46.0615883 14.0136637,44.493704 14.0136637,42.5667622 L14.0136637,42.5667622 Z M14.0176991,17.4856003 C14.0176991,15.5606533 15.6015929,13.9947637 17.5486726,13.9947637 C19.4957522,13.9947637 21.079646,15.5606533 21.079646,17.4856003 C21.079646,19.4095499 19.4957522,20.9764369 17.5486726,20.9764369 C15.6015929,20.9764369 14.0176991,19.4095499 14.0176991,17.4856003 L14.0176991,17.4856003 Z M37.7256637,47.2484728 L37.7256637,39.9715746 C40.2952035,39.4948261 42.2614513,37.2636828 42.2614513,34.5877073 C42.2614513,31.5656402 39.7736283,29.1060965 36.7168142,29.1060965 C33.66,29.1060965 31.172177,31.5656402 31.172177,34.5877073 C31.172177,37.2636828 33.1384248,39.4948261 35.7079646,39.9715746 L35.7079646,47.2484728 C35.7079646,48.41142 34.9220708,49.4656527 33.7275929,49.9344221 L23.2769204,54.034659 C21.6042478,54.6909363 20.3744602,55.9815484 19.8427965,57.5304825 C19.41,57.3349956 19.0417699,57.1943648 18.5575221,57.1135769 L18.5575221,47.9675851 C21.180531,47.5347214 23.0933097,45.2806383 23.0933097,42.5667622 C23.0933097,39.8030171 21.2148319,37.5948136 18.5575221,37.1739185 L18.5575221,22.8894153 C21.1835575,22.4575489 23.0973451,20.2014711 23.0973451,17.4856003 C23.0973451,14.4605411 20.6085133,12 17.5486726,12 C14.4888319,12 12,14.4605411 12,17.4856003 C12,20.1256701 14.0217345,22.3358683 16.539823,22.8545069 L16.539823,37.2018452 C14.0247611,37.7204837 12.0040354,39.9286872 12.0040354,42.5667622 C12.0040354,45.2048373 14.0247611,47.4130408 16.539823,47.9316793 L16.539823,57.1494826 C14.0247611,57.6681212 12.0040354,59.8763246 12.0040354,62.5143997 C12.0040354,65.5364668 14.4918584,67.9960105 17.5486726,67.9960105 C20.6054867,67.9960105 23.0933097,65.5364668 23.0933097,62.5143997 C23.0933097,61.0911358 22.5364248,59.7965341 21.6345133,58.8210946 C21.8019823,57.5504301 22.7008673,56.437352 24.0315398,55.9157212 L34.4822124,51.8154844 C36.4615752,51.0385239 37.7256637,49.2462286 37.7256637,47.2484728 L37.7256637,47.2484728 Z" id="codecommit-deploy-dark-3-AWS-CodeCommit_Icon_64_Squid" fill="#FFFFFF"></path>
    </g>
</g>
  <text x="666" y="174" text-anchor="middle" fill="#f8fafc" font-family="sans-serif" font-size="13" font-weight="600">pulse-deploy</text><text x="666" y="190" text-anchor="middle" fill="#94a3b8" font-family="sans-serif" font-size="11">manifests</text>
  <line x1="706" y1="130" x2="736" y2="130" stroke="#64748b" stroke-width="2"/>
  <polygon points="736,125 746,130 736,135" fill="#64748b"/>
  <g transform="translate(755.3333333333334 104) scale(0.0642570281124498)">
  <path id="argo-dark-4-a" fill="#fff" d="M336.76 437.61c0 28.31-18.83 43.36-49.29 43.36-30.45 0-47.2-17.84-47.2-43.36 0 0 16.75 23.65 47.2 23.65 30.46 0 49.3-23.65 49.3-23.65Z"/>
  <path fill="#E2F5FC" d="M290.5 547.98c148.47 0 268.84-120.45 268.84-269.04 0-148.58-120.37-269.03-268.84-269.03-148.47 0-268.84 120.45-268.84 269.03 0 148.59 120.37 269.04 268.84 269.04Z"/>
  <path fill="#CDECF6" d="M290.5 504.04c121.36 0 219.74-98.45 219.74-219.9S411.86 64.24 290.5 64.24c-121.36 0-219.74 98.45-219.74 219.9s98.38 219.9 219.74 219.9Z"/>
  <path fill="#fff" d="M208.31 91.51a12.98 12.98 0 1 0 0-25.96 12.98 12.98 0 0 0 0 25.96Zm-96.57 325.82a4.5 4.5 0 1 0 7.08-5.54c-87.8-112.21-37.15-257.65 62.5-314.74a4.5 4.5 0 0 0-4.47-7.8C73.23 148.6 20.03 300.12 111.74 417.33Z"/>
  <path fill="#B5D2F3" d="M19.26 225.54a3.5 3.5 0 1 0-7 0h7Zm-7 105.38a3.5 3.5 0 1 0 7 0h-7Zm555.07-105.88a3.5 3.5 0 1 0-7 0h7Zm-7 105.38a3.5 3.5 0 1 0 7 0h-7ZM289.79 555.97c153.28 0 277.54-124.35 277.54-277.73h-7c0 149.52-121.13 270.73-270.54 270.73v7Zm277.54-277.73C567.33 124.84 443.07.5 289.79.5v7c149.41 0 270.54 121.21 270.54 270.74h7ZM289.79.5C136.51.5 12.26 124.85 12.26 278.24h7C19.26 128.7 140.38 7.5 289.79 7.5v-7ZM12.26 278.24c0 153.38 124.25 277.73 277.53 277.73v-7c-149.4 0-270.53-121.2-270.53-270.73h-7Zm0-52.7v105.38h7V225.54h-7Zm548.07-.5v105.38h7V225.04h-7Z"/>
  <path fill="#B5D2F3" d="M21.66 225.73a10.84 10.84 0 1 0-21.66 0v106.43a10.84 10.84 0 1 0 21.66 0V225.73Zm559.34 0a10.84 10.84 0 1 0-21.66 0v106.43a10.84 10.84 0 1 0 21.66 0V225.73Z"/>
  <path fill="#FE733E" d="M171.17 687.76c12.53-5.1 9.98-10.2 9.98-12.74l-6.1-92.55-5.37-46.3-8.12-289.07c0-68.6 50.73-132.72 127.3-132.72s130.76 61.71 130.88 132.77c-2.2 137.24-5.9 189.47-11.07 288.02-.63 13.47-2.38 33.86-2.96 46.32-2.88 61.66-6.14 91.87-6.14 93.53 0 2.55-2.54 7.64 9.98 12.74 12.52 5.1 41.46 11.71 41.46 13.33 0 1.6-48.89 0-48.89 0-28.02 0-28.02-20.98-28.02-26.07 0-5.1-7.64-92.6-7.64-92.6l-2.55 112.99c0 5.1 2.55 12.74 20.38 17.84 0 0 38.91 5.89 38.91 8.01 0 2.13-46.55 0-46.55 0-35.45 0-35.45-20.75-35.45-20.75l-7.64-92.6S331 700.5 331 713.24c0 9.99 1.73 17.63 29.54 22.73 13.43 3.73 40.54 8.35 40.54 10.2 0 1.85-61.86 0-61.86 0-33.11-2.55-36.24-25.5-36.24-25.5l-12.55-46.14-12.5 46.15s-5.09 22.94-38.2 25.49c0 0-56.17 1.85-56.17 0s22.5-5.99 36.81-10.2c19.36-5.69 29.55-12.74 29.55-22.73 0-12.74-2.55-105.35-2.55-105.35l-7.64 92.6s0 22.74-35.45 22.74c0 0-50.5.15-50.5-1.98 0-2.12 42.64-8 42.64-8 17.83-5.1 20.38-12.75 20.38-17.85l-2.55-113s-7.64 87.5-7.64 92.6c0 5.1 0 28.05-28.02 28.05 0 0-47.13-2.33-47.13-3.95 0-1.6 27.18-6.25 39.7-11.35Z"/>
  <path fill="#FE6446" d="M169.68 536.16s-5.23 12.8-17.05 19.7c-11.81 6.9-25.51 9.14-38.4 10.84 0 0 17.72 8.87 39.39 6.9 13.58-1.1 19.28 2.36 21.42 8.87l-5.36-46.3Zm238.99-.99s7.63 12.8 19.45 19.7c11.82 6.9 25.51 9.15 38.4 10.85 0 0-17.72 8.87-39.38 6.9-13.58-1.1-19.29 2.35-21.43 8.87l2.96-46.32Z"/>
  <path fill="#FE6446" d="m408.81 533 .99-16.02c-62.56 29.54-120.7 26.43-120.7 26.43s-58.49 2.45-119.92-26.57l.4 15.57s43.82 26.94 119.52 26.94c75.7 0 119.71-26.35 119.71-26.35Z" opacity=".3"/>
  <path fill="#FEA777" d="M238.78 194.25a17.84 17.84 0 1 0-.01-35.67 17.84 17.84 0 0 0 .01 35.67Z" opacity=".5"/>
  <path fill="#FE6B3C" d="M419.5 249.06s1.88-22.34-7.88-48.94c-26.77-73.01-92.56-87.71-128.02-85.64 0 0 50.28 23.76 52.61 99.8 1.06 33.72 1.06 34.78 1.06 34.78h82.23Z"/>
  <use href="#argo-dark-4-a"/>
  <use href="#argo-dark-4-a"/>
  <path fill="#fff" d="M336.76 437.61c0 28.31-11.39 72.92-49.29 72.92s-47.2-47.4-47.2-72.92c0 0 0 43.36 47.2 43.36 51.62 0 49.3-43.36 49.3-43.36Z"/>
  <path fill="#070909" d="M336.76 437.61c0 28.31-11.39 72.92-49.29 72.92s-47.2-47.4-47.2-72.92c0 0 0 43.36 47.2 43.36 51.62 0 49.3-43.36 49.3-43.36Z"/>
  <path fill="#FE6446" d="M197.93 394.25a77.82 77.82 0 0 0 77.8-77.85c0-43-34.83-77.85-77.8-77.85a77.82 77.82 0 0 0-77.8 77.85c0 43 34.84 77.85 77.8 77.85Z"/>
  <path fill="#fff" d="M197.73 378.32a60.94 60.94 0 0 0 60.92-60.96 60.94 60.94 0 0 0-60.92-60.97 60.94 60.94 0 0 0-60.92 60.97 60.94 60.94 0 0 0 60.92 60.96Z"/>
  <path fill="#090B0B" d="M195.96 325.27a18.72 18.72 0 1 0-.01-37.44 18.72 18.72 0 0 0 .01 37.44Z"/>
  <path fill="#FE6446" d="M381.1 394.25a77.82 77.82 0 0 0 77.79-77.85c0-43-34.83-77.85-77.8-77.85a77.82 77.82 0 0 0-77.79 77.85c0 43 34.83 77.85 77.8 77.85Z"/>
  <path fill="#fff" d="M378 378.21a60.94 60.94 0 0 0 60.93-60.96A60.94 60.94 0 0 0 378 256.29a60.94 60.94 0 0 0-60.92 60.96A60.94 60.94 0 0 0 378 378.21Z"/>
  <path fill="#090B0B" d="M379.13 325.27a18.72 18.72 0 1 0-.02-37.44 18.72 18.72 0 0 0 .01 37.44Z"/>
</g>
  <text x="774" y="174" text-anchor="middle" fill="#f8fafc" font-family="sans-serif" font-size="13" font-weight="600">Argo CD</text><text x="774" y="190" text-anchor="middle" fill="#94a3b8" font-family="sans-serif" font-size="11">on EKS</text>
  <line x1="802" y1="130" x2="832" y2="130" stroke="#64748b" stroke-width="2"/>
  <polygon points="832,125 842,130 832,135" fill="#64748b"/>
  <g transform="translate(860 104.65255414731992) scale(2.4396554008924927)">
  <defs
     id="svc-5-defs13820" />
  
  
  <g
    
    
     id="svc-5-layer1"
     transform="translate(-0.99262638,-1.174181)">
    <g
       id="svc-5-g70"
       transform="matrix(1.0148887,0,0,1.0148887,16.902146,-2.698726)">
      <path
        
        
        
        
         id="svc-5-path3055"
         d="m -6.8492015,4.2724668 a 1.1191255,1.1099671 0 0 0 -0.4288818,0.1085303 l -5.8524037,2.7963394 a 1.1191255,1.1099671 0 0 0 -0.605524,0.7529759 l -1.443828,6.2812846 a 1.1191255,1.1099671 0 0 0 0.151943,0.851028 1.1191255,1.1099671 0 0 0 0.06362,0.08832 l 4.0508,5.036555 a 1.1191255,1.1099671 0 0 0 0.874979,0.417654 l 6.4961011,-0.0015 a 1.1191255,1.1099671 0 0 0 0.8749788,-0.416906 L 1.3818872,15.149453 A 1.1191255,1.1099671 0 0 0 1.5981986,14.210104 L 0.15212657,7.9288154 A 1.1191255,1.1099671 0 0 0 -0.45339794,7.1758396 L -6.3065496,4.3809971 A 1.1191255,1.1099671 0 0 0 -6.8492015,4.2724668 Z"
         style="fill:#326ce5;fill-opacity:1;stroke:none;stroke-width:0;stroke-miterlimit:4;stroke-dasharray:none;stroke-opacity:1" />
      <path
         id="svc-5-path3054-2-9"
         d="M -6.8523435,3.8176372 A 1.1814304,1.171762 0 0 0 -7.3044284,3.932904 l -6.1787426,2.9512758 a 1.1814304,1.171762 0 0 0 -0.639206,0.794891 l -1.523915,6.6308282 a 1.1814304,1.171762 0 0 0 0.160175,0.89893 1.1814304,1.171762 0 0 0 0.06736,0.09281 l 4.276094,5.317236 a 1.1814304,1.171762 0 0 0 0.92363,0.440858 l 6.8576188,-0.0015 a 1.1814304,1.171762 0 0 0 0.9236308,-0.44011 l 4.2745966,-5.317985 a 1.1814304,1.171762 0 0 0 0.228288,-0.990993 L 0.53894439,7.6775738 A 1.1814304,1.171762 0 0 0 -0.10026101,6.8834313 L -6.2790037,3.9321555 A 1.1814304,1.171762 0 0 0 -6.8523435,3.8176372 Z m 0.00299,0.4550789 a 1.1191255,1.1099671 0 0 1 0.5426517,0.1085303 l 5.85315169,2.7948425 A 1.1191255,1.1099671 0 0 1 0.15197811,7.9290648 L 1.598051,14.21035 a 1.1191255,1.1099671 0 0 1 -0.2163123,0.939348 l -4.0493032,5.037304 a 1.1191255,1.1099671 0 0 1 -0.8749789,0.416906 l -6.4961006,0.0015 a 1.1191255,1.1099671 0 0 1 -0.874979,-0.417652 l -4.0508,-5.036554 a 1.1191255,1.1099671 0 0 1 -0.06362,-0.08832 1.1191255,1.1099671 0 0 1 -0.151942,-0.851028 l 1.443827,-6.2812853 a 1.1191255,1.1099671 0 0 1 0.605524,-0.7529758 l 5.8524036,-2.7963395 a 1.1191255,1.1099671 0 0 1 0.4288819,-0.1085303 z"
         style="color:#000000;font-style:normal;font-variant:normal;font-weight:normal;font-stretch:normal;font-size:medium;line-height:normal;font-family:Sans;-inkscape-font-specification:Sans;text-indent:0;text-align:start;text-decoration:none;text-decoration-line:none;letter-spacing:normal;word-spacing:normal;text-transform:none;writing-mode:lr-tb;direction:ltr;baseline-shift:baseline;display:inline;overflow:visible;visibility:visible;fill:#ffffff;fill-opacity:1;fill-rule:nonzero;stroke:none;stroke-width:0;stroke-miterlimit:4;stroke-dasharray:none;marker:none;enable-background:accumulate"
         text-anchor="start"
         />
    </g>
    <text
       id="svc-5-text2066"
       y="16.811775"
       x="9.9799767"
       style="font-style:normal;font-weight:normal;font-size:10.58333302px;line-height:6.61458349px;font-family:Sans;letter-spacing:0px;word-spacing:0px;fill:#ffffff;fill-opacity:1;stroke:none;stroke-width:0.26458332px;stroke-linecap:butt;stroke-linejoin:miter;stroke-opacity:1"
       xml:space="preserve"><tspan
         style="font-style:normal;font-variant:normal;font-weight:normal;font-stretch:normal;font-size:2.82222223px;font-family:Arial;-inkscape-font-specification:'Arial, Normal';text-align:center;writing-mode:lr-tb;fill:#ffffff;fill-opacity:1;stroke-width:0.26458332px"
         text-anchor="middle"
         y="16.811775"
         x="9.9799767"
         id="svc-5-tspan2064"
        >svc</tspan></text>
    <g
       id="svc-5-g3345"
       transform="translate(0.09238801,0)">
      <path
         style="fill:#ffffff;fill-rule:evenodd;stroke:none;stroke-width:0.26458332;stroke-linecap:square;stroke-miterlimit:10"
        
         d="m 4.4949896,11.260826 2.9083311,0 0,2.041667 -2.9083311,0 z"
         id="svc-5-path964" />
      <path
         style="fill:#ffffff;fill-rule:evenodd;stroke:none;stroke-width:0.26458332;stroke-linecap:square;stroke-miterlimit:10"
        
         d="m 8.4637407,11.260826 2.9083303,0 0,2.041667 -2.9083303,0 z"
         id="svc-5-path966" />
      <path
         style="fill:#ffffff;fill-rule:evenodd;stroke:none;stroke-width:0.26458332;stroke-linecap:square;stroke-miterlimit:10"
        
         d="m 12.432491,11.260826 2.90833,0 0,2.041667 -2.90833,0 z"
         id="svc-5-path968" />
      <path
         style="fill:#ffffff;fill-rule:evenodd;stroke:none;stroke-width:0.26458332;stroke-linecap:square;stroke-miterlimit:10"
        
         d="m 7.6137407,5.2082921 4.6083303,0 0,2.041667 -4.6083303,0 z"
         id="svc-5-path970" />
      <path
         style="fill:none;fill-rule:evenodd;stroke:#ffffff;stroke-width:0.52916664;stroke-linecap:butt;stroke-linejoin:round;stroke-miterlimit:10;stroke-opacity:1"
        
         d="m 9.9179005,7.2499601 0,2.005449 -3.966671,0 0,2.0028859"
         id="svc-5-path978" />
      <path
         style="fill:none;fill-rule:evenodd;stroke:#ffffff;stroke-width:0.52899998;stroke-linecap:butt;stroke-linejoin:round;stroke-miterlimit:10;stroke-dasharray:none;stroke-opacity:1"
        
         d="m 9.9179005,7.2499601 0,2.005449 3.9666705,0 0,2.0028859"
         id="svc-5-path986" />
      <path
         style="fill:none;fill-rule:evenodd;stroke:#ffffff;stroke-width:0.52916664;stroke-linecap:butt;stroke-linejoin:round;stroke-miterlimit:10;stroke-opacity:1"
        
         d="m 9.9095538,7.2512251 0,2.005449 0.0167,0 0,2.0028859"
         id="svc-5-path982" />
    </g>
  </g>
</g>
  <text x="882" y="174" text-anchor="middle" fill="#f8fafc" font-family="sans-serif" font-size="13" font-weight="600">Pulse</text><text x="882" y="190" text-anchor="middle" fill="#94a3b8" font-family="sans-serif" font-size="11">workload</text>
  
</svg>